SplineFontDB: 3.0
FontName: Jones-it-Narrow-Book
FullName: Jones* Narrow Book
FamilyName: Jones* Narrow
Weight: Book
Copyright: 
UComments: "2016-1-29: Created with FontForge (http://fontforge.org)"
Version: 002.000
ItalicAngle: 0
UnderlinePosition: -150
UnderlineWidth: 50
Ascent: 784
Descent: 216
InvalidEm: 0
LayerCount: 2
Layer: 0 0 "Back" 1
Layer: 1 0 "Fore" 0
XUID: [1021 31 -699969567 4970488]
FSType: 0
OS2Version: 2
OS2_WeightWidthSlopeOnly: 0
OS2_UseTypoMetrics: 0
CreationTime: 1454127431
ModificationTime: 1459122893
PfmFamily: 17
TTFWeight: 400
TTFWidth: 4
LineGap: 0
VLineGap: 0
OS2TypoAscent: 784
OS2TypoAOffset: 0
OS2TypoDescent: -216
OS2TypoDOffset: 0
OS2TypoLinegap: 200
OS2WinAscent: 850
OS2WinAOffset: 0
OS2WinDescent: 300
OS2WinDOffset: 0
HheadAscent: 850
HheadAOffset: 0
HheadDescent: -300
HheadDOffset: 0
OS2SubXSize: 650
OS2SubYSize: 600
OS2SubXOff: 0
OS2SubYOff: 75
OS2SupXSize: 650
OS2SupYSize: 600
OS2SupXOff: 0
OS2SupYOff: 350
OS2StrikeYSize: 50
OS2StrikeYPos: 314
OS2CapHeight: 700
OS2XHeight: 520
OS2Vendor: 'PfEd'
Lookup: 258 0 0 "kern" { "kerning" [150,0,2] } ['kern' ('DFLT' <'dflt' > 'grek' <'dflt' > 'latn' <'dflt' > ) ]
MarkAttachClasses: 1
DEI: 91125
KernClass2: 13 10 "kerning"
 3 A L
 5 D O Q
 3 F P
 3 K X
 3 V W
 13 b e h m n o p
 15 a c g q r s u z
 14 d f i j l t fi
 3 k x
 3 v w
 3 R B
 3 T Y
 1 A
 7 C G O Q
 3 T Y
 3 V W
 15 a m n p r s u z
 11 c d e g o q
 15 b f h i j k l t
 5 v w y
 1 x

StartChar: E
Encoding: 69 69 0
Width: 595
VWidth: 0
Flags: HMW
AnchorPoint: "ced" 435 0 basechar 0
AnchorPoint: "dot" 335 760 basechar 0
LayerCount: 2
Fore
SplineSet
90 398 m 1
 490 398 l 1
 490 318 l 1
 90 318 l 1
 90 398 l 1
90 700 m 1
 540 700 l 1
 540 620 l 1
 90 620 l 1
 90 700 l 1
90 80 m 1
 540 80 l 1
 540 0 l 1
 90 0 l 1
 90 80 l 1
90 700 m 1
 180 700 l 1
 180 0 l 1
 90 0 l 1
 90 700 l 1
EndSplineSet
Validated: 5
EndChar

StartChar: I
Encoding: 73 73 1
Width: 260
VWidth: 0
Flags: HMW
AnchorPoint: "ced" 135 0 basechar 0
AnchorPoint: "dot" 130 760 basechar 0
LayerCount: 2
Fore
SplineSet
85 700 m 1
 175 700 l 1
 175 0 l 1
 85 0 l 1
 85 700 l 1
EndSplineSet
Validated: 1
EndChar

StartChar: F
Encoding: 70 70 2
Width: 575
VWidth: 0
Flags: HMW
AnchorPoint: "ced" 135 0 basechar 0
AnchorPoint: "dot" 325 760 basechar 0
LayerCount: 2
Fore
SplineSet
90 378 m 1
 490 378 l 1
 490 298 l 1
 90 298 l 1
 90 378 l 1
90 700 m 1
 540 700 l 1
 540 620 l 1
 90 620 l 1
 90 700 l 1
90 700 m 1
 180 700 l 1
 180 0 l 1
 90 0 l 1
 90 700 l 1
EndSplineSet
Validated: 5
EndChar

StartChar: H
Encoding: 72 72 3
Width: 685
VWidth: 0
Flags: HMW
AnchorPoint: "ced" 565 0 basechar 0
AnchorPoint: "dot" 340 760 basechar 0
LayerCount: 2
Fore
SplineSet
515 700 m 1
 605 700 l 1
 605 0 l 1
 515 0 l 1
 515 700 l 1
80 398 m 1
 550 398 l 1
 550 318 l 1
 80 318 l 1
 80 398 l 1
80 700 m 1
 170 700 l 1
 170 0 l 1
 80 0 l 1
 80 700 l 1
EndSplineSet
Validated: 5
EndChar

StartChar: L
Encoding: 76 76 4
Width: 555
VWidth: 0
Flags: HMW
AnchorPoint: "ced" 315 0 basechar 0
AnchorPoint: "dot" 335 760 basechar 0
LayerCount: 2
Fore
SplineSet
80 80 m 1
 530 80 l 1
 530 0 l 1
 80 0 l 1
 80 80 l 1
80 700 m 1
 170 700 l 1
 170 0 l 1
 80 0 l 1
 80 700 l 1
EndSplineSet
Validated: 5
EndChar

StartChar: T
Encoding: 84 84 5
Width: 570
VWidth: 0
Flags: HMW
AnchorPoint: "ced" 287 0 basechar 0
AnchorPoint: "dot" 285 760 basechar 0
LayerCount: 2
Fore
SplineSet
20 700 m 1
 550 700 l 1
 550 620 l 1
 20 620 l 1
 20 700 l 1
240 700 m 1
 330 700 l 1
 330 0 l 1
 240 0 l 1
 240 700 l 1
EndSplineSet
Validated: 5
EndChar

StartChar: O
Encoding: 79 79 7
Width: 740
VWidth: 0
Flags: HMW
AnchorPoint: "ced" 370 0 basechar 0
AnchorPoint: "dot" 370 760 basechar 0
LayerCount: 2
Fore
SplineSet
135 350 m 0
 135 184 219 70 370 70 c 0
 521 70 605 184 605 350 c 0
 605 516 521 630 370 630 c 0
 219 630 135 516 135 350 c 0
45 350 m 0
 45 569 185 710 370 710 c 0
 555 710 695 569 695 350 c 0
 695 131 555 -10 370 -10 c 0
 185 -10 45 131 45 350 c 0
EndSplineSet
Validated: 1
EndChar

StartChar: C
Encoding: 67 67 8
Width: 667
VWidth: 0
Flags: HMW
AnchorPoint: "ced" 375 0 basechar 0
AnchorPoint: "dot" 375 760 basechar 0
LayerCount: 2
Fore
SplineSet
140 350 m 0
 140 184 224 70 375 70 c 0
 468 70 523 120 564 171 c 1
 622 113 l 1
 567 48 501 -10 375 -10 c 0
 170 -10 50 151 50 350 c 0
 50 549 170 710 375 710 c 0
 491 710 567 652 622 587 c 1
 564 529 l 1
 521 583 468 630 375 630 c 0
 224 630 140 526 140 350 c 0
EndSplineSet
Validated: 1
EndChar

StartChar: A
Encoding: 65 65 9
Width: 650
VWidth: 0
Flags: HMW
AnchorPoint: "ced" 582 0 basechar 0
AnchorPoint: "ring" 325 700 basechar 0
AnchorPoint: "dot" 325 760 basechar 0
LayerCount: 2
Fore
SplineSet
285 700 m 1
 365 700 l 1
 353 690 l 1
 287 690 l 1
 285 700 l 1
169 260 m 1
 481 260 l 1
 481 185 l 1
 169 185 l 1
 169 260 l 1
550 0 m 1
 292 690 l 1
 365 700 l 1
 635 0 l 1
 550 0 l 1
285 700 m 1
 358 690 l 1
 100 0 l 1
 15 0 l 1
 285 700 l 1
EndSplineSet
Validated: 5
EndChar

StartChar: V
Encoding: 86 86 10
Width: 650
VWidth: 0
Flags: HMW
AnchorPoint: "ced" 325 0 basechar 0
AnchorPoint: "dot" 324 760 basechar 0
LayerCount: 2
Fore
SplineSet
365 0 m 1
 285 0 l 1
 290 30 l 5
 360 30 l 1
 365 0 l 1
110 700 m 1
 360 30 l 1
 285 0 l 1
 15 700 l 1
 110 700 l 1
365 0 m 1
 290 30 l 5
 540 700 l 1
 635 700 l 1
 365 0 l 1
EndSplineSet
Validated: 5
EndChar

StartChar: G
Encoding: 71 71 11
Width: 697
VWidth: 0
Flags: HMW
AnchorPoint: "ced" 370 0 basechar 0
AnchorPoint: "dot" 370 760 basechar 0
LayerCount: 2
Fore
SplineSet
627 370 m 1
 627 290 l 1
 370 290 l 1
 370 370 l 1
 627 370 l 1
627 113 m 1
 537 113 l 1
 537 370 l 1
 627 370 l 1
 627 113 l 1
135 350 m 0
 135 174 209 70 370 70 c 0
 463 70 516 110 569 171 c 1
 627 113 l 1
 562 38 486 -10 370 -10 c 0
 155 -10 45 151 45 350 c 0
 45 549 155 710 370 710 c 0
 486 710 552 662 617 587 c 1
 562 532 l 5
 509 593 453 630 370 630 c 0
 209 630 135 526 135 350 c 0
EndSplineSet
Validated: 5
EndChar

StartChar: D
Encoding: 68 68 12
Width: 725
VWidth: 0
Flags: HMW
AnchorPoint: "ced" 285 0 basechar 0
AnchorPoint: "dot" 305 760 basechar 0
LayerCount: 2
Fore
SplineSet
90 700 m 1
 340 700 l 1
 340 620 l 1
 90 620 l 1
 90 700 l 1
90 80 m 1
 340 80 l 1
 340 0 l 1
 90 0 l 1
 90 80 l 1
90 700 m 1
 180 700 l 1
 180 0 l 1
 90 0 l 1
 90 700 l 1
340 80 m 1
 491 80 580 194 580 350 c 0
 580 506 491 620 340 620 c 1
 340 700 l 5
 550 700 670 549 670 350 c 0
 670 151 550 0 340 0 c 5
 340 80 l 1
EndSplineSet
Validated: 5
EndChar

StartChar: U
Encoding: 85 85 13
Width: 670
VWidth: 0
Flags: HMW
AnchorPoint: "ced" 335 0 basechar 0
AnchorPoint: "dot" 335 760 basechar 0
LayerCount: 2
Fore
SplineSet
510 300 m 1
 510 700 l 1
 595 700 l 1
 595 300 l 1
 510 300 l 1
75 300 m 1
 75 700 l 1
 160 700 l 1
 160 300 l 1
 75 300 l 1
510 300 m 1
 595 300 l 1
 595 131 524 -10 335 -10 c 0
 146 -10 75 131 75 300 c 1
 160 300 l 1
 160 181 188 65 335 65 c 0
 482 65 510 181 510 300 c 1
EndSplineSet
Validated: 5
EndChar

StartChar: o
Encoding: 111 111 14
Width: 550
VWidth: 0
Flags: HMW
AnchorPoint: "ced" 275 0 basechar 0
AnchorPoint: "dot" 275 673 basechar 0
LayerCount: 2
Fore
SplineSet
115 260 m 0
 115 151 168 65 275 65 c 0
 382 65 435 151 435 260 c 4
 435 369 382 455 275 455 c 0
 168 455 115 369 115 260 c 0
30 260 m 0
 30 419 126 530 275 530 c 0
 424 530 520 419 520 260 c 4
 520 101 424 -10 275 -10 c 0
 126 -10 30 101 30 260 c 0
EndSplineSet
Validated: 1
EndChar

StartChar: B
Encoding: 66 66 15
Width: 640
VWidth: 0
Flags: HMW
AnchorPoint: "ced" 287 0 basechar 0
AnchorPoint: "dot" 268 760 basechar 0
LayerCount: 2
Fore
SplineSet
340 408 m 1
 423 408 478 427 478 512 c 4
 478 597 423 620 340 620 c 1
 340 700 l 1
 469 700 568 636 568 512 c 4
 568 389 469 350 340 350 c 1
 340 408 l 1
90 700 m 1
 180 700 l 1
 180 0 l 1
 90 0 l 1
 90 700 l 1
90 80 m 1
 360 80 l 1
 360 0 l 1
 90 0 l 1
 90 80 l 1
90 700 m 1
 340 700 l 1
 340 620 l 1
 90 620 l 1
 90 700 l 1
90 408 m 1
 360 408 l 1
 360 328 l 1
 90 328 l 1
 90 408 l 1
360 80 m 1
 443 80 505 110 505 200 c 0
 505 290 443 328 360 328 c 1
 360 385 l 1
 489 385 595 329 595 200 c 0
 595 71 489 0 360 0 c 1
 360 80 l 1
EndSplineSet
EndChar

StartChar: K
Encoding: 75 75 16
Width: 630
VWidth: 0
Flags: HMW
AnchorPoint: "ced" 565 0 basechar 0
AnchorPoint: "dot" 305 760 basechar 0
LayerCount: 2
Fore
SplineSet
244 403 m 5
 340 413 l 1
 620 0 l 1
 516 0 l 1
 244 403 l 5
485 700 m 1
 590 700 l 1
 170 207 l 1
 85 230 l 1
 485 700 l 1
80 700 m 1
 170 700 l 1
 170 0 l 1
 80 0 l 1
 80 700 l 1
EndSplineSet
Validated: 5
EndChar

StartChar: R
Encoding: 82 82 17
Width: 648
VWidth: 0
Flags: HMW
AnchorPoint: "ced" 540 0 basechar 0
AnchorPoint: "dot" 280 760 basechar 0
LayerCount: 2
Fore
SplineSet
268 320 m 1
 373 320 l 1
 603 0 l 1
 498 0 l 1
 268 320 l 1
340 338 m 1
 427 338 478 392 478 477 c 0
 478 562 427 620 340 620 c 1
 340 700 l 1
 469 700 568 602 568 477 c 0
 568 353 469 258 340 258 c 1
 340 338 l 1
80 700 m 1
 170 700 l 1
 170 0 l 1
 80 0 l 1
 80 700 l 1
85 700 m 1
 340 700 l 1
 340 620 l 1
 85 620 l 1
 85 700 l 1
85 338 m 1
 340 338 l 1
 340 258 l 1
 85 258 l 1
 85 338 l 1
EndSplineSet
Validated: 5
EndChar

StartChar: P
Encoding: 80 80 18
Width: 593
VWidth: 0
Flags: HMW
AnchorPoint: "ced" 130 0 basechar 0
AnchorPoint: "dot" 270 760 basechar 0
LayerCount: 2
Fore
SplineSet
310 338 m 1
 398 338 458 392 458 477 c 0
 458 562 398 620 310 620 c 1
 310 700 l 1
 439 700 548 602 548 477 c 0
 548 353 439 258 310 258 c 1
 310 338 l 1
80 700 m 1
 170 700 l 1
 170 0 l 1
 80 0 l 1
 80 700 l 1
85 700 m 1
 310 700 l 1
 310 620 l 1
 85 620 l 1
 85 700 l 1
85 338 m 1
 310 338 l 1
 310 258 l 1
 85 258 l 1
 85 338 l 1
EndSplineSet
Validated: 5
EndChar

StartChar: Q
Encoding: 81 81 19
Width: 740
VWidth: 0
Flags: HMW
AnchorPoint: "ced" 400 0 basechar 0
AnchorPoint: "dot" 400 760 basechar 0
LayerCount: 2
Fore
SplineSet
135 350 m 0
 135 184 219 70 370 70 c 0
 521 70 605 184 605 350 c 0
 605 516 521 630 370 630 c 0
 219 630 135 516 135 350 c 0
45 350 m 0
 45 569 185 710 370 710 c 0
 555 710 695 569 695 350 c 0
 695 131 555 -10 370 -10 c 0
 185 -10 45 131 45 350 c 0
650 -44 m 1
 382 224 l 1
 440 282 l 1
 708 15 l 1
 650 -44 l 1
EndSplineSet
Validated: 5
EndChar

StartChar: J
Encoding: 74 74 20
Width: 499
VWidth: 0
Flags: HMW
AnchorPoint: "ced" 220 0 basechar 0
AnchorPoint: "dot" 220 760 basechar 0
LayerCount: 2
Fore
SplineSet
339 260 m 1
 339 700 l 1
 424 700 l 1
 424 260 l 1
 339 260 l 1
339 260 m 1
 424 260 l 1
 424 71 359 -10 220 -10 c 0
 112 -10 57 51 15 157 c 1
 87 198 l 5
 122 115 161 65 220 65 c 4
 309 65 339 141 339 260 c 1
EndSplineSet
Validated: 5
EndChar

StartChar: S
Encoding: 83 83 21
Width: 565
VWidth: 0
Flags: HMW
AnchorPoint: "ced" 282 0 basechar 0
AnchorPoint: "dot" 330 760 basechar 0
LayerCount: 2
Fore
SplineSet
440 196 m 1
 525 196 l 1
 525 67 443 -10 294 -10 c 0
 165 -10 107 56 45 123 c 1
 99 176 l 1
 147 122 206 65 294 65 c 0
 377 65 440 105 440 196 c 1
168 527 m 1
 83 521 l 1
 83 622 156 710 305 710 c 0
 404 710 466 674 518 622 c 1
 468 566 l 1
 423 610 373 635 305 635 c 0
 212 635 168 584 168 527 c 1
325 413 m 0
 442.25390625 397.702148438 525 326 525 196 c 1
 440 196 l 1
 440 287 377.385742188 322.255859375 288 333 c 0
 175.239257812 346.553710938 83 406 83 521 c 1
 168 527 l 1
 168 452 217.098632812 427.078125 325 413 c 0
EndSplineSet
EndChar

StartChar: M
Encoding: 77 77 22
Width: 792
VWidth: 0
Flags: HMW
AnchorPoint: "ced" 670 0 basechar 0
AnchorPoint: "dot" 400 760 basechar 0
LayerCount: 2
Fore
SplineSet
420 225 m 1
 372 225 l 1
 372 320 l 5
 420 320 l 5
 420 225 l 1
622 640 m 1
 602 700 l 1
 712 700 l 1
 712 680 l 1
 622 640 l 1
667 635 m 1
 420 225 l 1
 372 320 l 5
 602 700 l 1
 667 635 l 1
712 680 m 1
 712 0 l 1
 622 0 l 1
 622 640 l 1
 712 680 l 1
170 640 m 1
 80 680 l 1
 80 700 l 1
 190 700 l 1
 170 640 l 1
125 635 m 1
 190 700 l 1
 420 320 l 5
 372 225 l 1
 125 635 l 1
80 680 m 1
 170 640 l 1
 170 0 l 1
 80 0 l 1
 80 680 l 1
EndSplineSet
EndChar

StartChar: Y
Encoding: 89 89 23
Width: 590
VWidth: 0
Flags: HMW
AnchorPoint: "ced" 300 0 basechar 0
AnchorPoint: "dot" 292 760 basechar 0
LayerCount: 2
Fore
SplineSet
250 295 m 1
 340 295 l 1
 340 0 l 1
 250 0 l 1
 250 295 l 1
15 700 m 1
 115 700 l 1
 340 295 l 1
 290 217 l 1
 15 700 l 1
475 700 m 1
 575 700 l 1
 300 217 l 1
 250 295 l 1
 475 700 l 1
EndSplineSet
Validated: 5
EndChar

StartChar: W
Encoding: 87 87 24
Width: 925
VWidth: 0
Flags: HMW
AnchorPoint: "ced" 670 0 basechar 0
AnchorPoint: "dot" 460 760 basechar 0
LayerCount: 2
Fore
SplineSet
420 700 m 1
 505 700 l 1
 501 690 l 1
 424 690 l 1
 420 700 l 1
710 0 m 1
 630 0 l 1
 630 10 l 1
 710 10 l 1
 710 0 l 1
505 700 m 1
 710 10 l 1
 630 0 l 1
 424 690 l 1
 505 700 l 1
710 0 m 1
 630 10 l 1
 820 700 l 1
 910 700 l 1
 710 0 l 1
295 0 m 1
 215 0 l 1
 215 10 l 1
 295 10 l 1
 295 0 l 1
105 700 m 1
 295 10 l 1
 215 0 l 1
 15 700 l 1
 105 700 l 1
295 0 m 1
 215 10 l 1
 420 700 l 1
 501 690 l 1
 295 0 l 1
EndSplineSet
Validated: 5
EndChar

StartChar: N
Encoding: 78 78 25
Width: 690
VWidth: 0
Flags: HMW
AnchorPoint: "ced" 570 0 basechar 0
AnchorPoint: "dot" 350 760 basechar 0
LayerCount: 2
Fore
SplineSet
610 0 m 1
 530 0 l 1
 530 24 l 1
 610 14 l 1
 610 0 l 1
160 700 m 1
 160 680 l 1
 80 680 l 1
 80 700 l 1
 160 700 l 1
80 665 m 1
 160 700 l 1
 610 35 l 1
 530 0 l 1
 80 665 l 1
520 700 m 5
 610 700 l 5
 610 0 l 1
 520 20 l 1
 520 700 l 5
80 700 m 1
 170 680 l 1
 170 0 l 1
 80 0 l 1
 80 700 l 1
EndSplineSet
Validated: 5
EndChar

StartChar: X
Encoding: 88 88 26
Width: 630
VWidth: 0
Flags: HMW
AnchorPoint: "ced" 555 0 basechar 0
AnchorPoint: "dot" 314 760 basechar 0
LayerCount: 2
Fore
SplineSet
30 700 m 5
 135 700 l 5
 615 0 l 1
 510 0 l 1
 30 700 l 5
495 700 m 1
 600 700 l 1
 120 0 l 1
 15 0 l 1
 495 700 l 1
EndSplineSet
EndChar

StartChar: Z
Encoding: 90 90 27
Width: 580
VWidth: 0
Flags: HMW
AnchorPoint: "ced" 430 0 basechar 0
AnchorPoint: "dot" 285 760 basechar 0
LayerCount: 2
Fore
SplineSet
530 630 m 1
 520 630 l 1
 520 700 l 1
 530 700 l 1
 530 630 l 1
30 70 m 1
 40 70 l 1
 40 0 l 1
 30 0 l 1
 30 70 l 1
50 700 m 1
 520 700 l 1
 520 620 l 1
 50 620 l 1
 50 700 l 1
40 80 m 1
 550 80 l 1
 550 0 l 1
 40 0 l 1
 40 80 l 1
430 630 m 1
 530 630 l 1
 130 70 l 1
 30 70 l 1
 430 630 l 1
EndSplineSet
Validated: 5
EndChar

StartChar: l
Encoding: 108 108 28
Width: 225
VWidth: 0
Flags: HMW
AnchorPoint: "ced" 113 0 basechar 0
AnchorPoint: "dot" 113 793 basechar 0
LayerCount: 2
Fore
SplineSet
70 730 m 1
 155 730 l 1
 155 0 l 1
 70 0 l 1
 70 730 l 1
EndSplineSet
Validated: 1
EndChar

StartChar: b
Encoding: 98 98 29
Width: 555
VWidth: 0
Flags: HMW
AnchorPoint: "ced" 301 0 basechar 0
AnchorPoint: "dot" 305 673 basechar 0
LayerCount: 2
Fore
SplineSet
140 260 m 0
 140 141 193 65 290 65 c 0
 387 65 435 141 435 260 c 0
 435 379 387 455 290 455 c 0
 193 455 140 379 140 260 c 0
105 260 m 0
 105 409 161 530 300 530 c 0
 439 530 520 419 520 260 c 0
 520 101 439 -10 300 -10 c 0
 161 -10 105 111 105 260 c 0
55 730 m 1
 140 730 l 1
 140 0 l 1
 55 0 l 1
 55 730 l 1
EndSplineSet
Validated: 5
EndChar

StartChar: c
Encoding: 99 99 30
Width: 502
VWidth: 0
Flags: HMW
AnchorPoint: "ced" 280 0 basechar 0
AnchorPoint: "dot" 300 673 basechar 0
LayerCount: 2
Fore
SplineSet
115 260 m 0
 115 151 165 65 280 65 c 0
 354 65 398 101 420 145 c 5
 477 102 l 1
 444 38 367 -10 280 -10 c 0
 121 -10 30 111 30 260 c 0
 30 409 121 530 280 530 c 0
 367 530 445 481 477 418 c 1
 420 375 l 5
 398 419 354 455 280 455 c 0
 165 455 115 369 115 260 c 0
EndSplineSet
Validated: 1
EndChar

StartChar: d
Encoding: 100 100 31
Width: 555
VWidth: 0
Flags: HMW
AnchorPoint: "ced" 255 0 basechar 0
AnchorPoint: "dot" 250 673 basechar 0
LayerCount: 2
Fore
SplineSet
415 260 m 4
 415 379 362 455 265 455 c 0
 168 455 120 379 120 260 c 0
 120 141 168 65 265 65 c 0
 362 65 415 141 415 260 c 4
450 260 m 4
 450 111 394 -10 255 -10 c 0
 116 -10 35 101 35 260 c 0
 35 419 116 530 255 530 c 0
 394 530 450 409 450 260 c 4
500 730 m 5
 500 0 l 5
 415 0 l 5
 415 730 l 5
 500 730 l 5
EndSplineSet
Validated: 5
EndChar

StartChar: k
Encoding: 107 107 32
Width: 505
VWidth: 0
Flags: HMW
AnchorPoint: "ced" 460 0 basechar 0
AnchorPoint: "dot" 270 673 basechar 0
LayerCount: 2
Fore
SplineSet
180 291 m 5
 265 311 l 5
 505 0 l 1
 407 0 l 1
 180 291 l 5
374 520 m 1
 475 520 l 1
 145 180 l 1
 90 234 l 1
 374 520 l 1
60 730 m 1
 145 730 l 1
 145 0 l 1
 60 0 l 1
 60 730 l 1
EndSplineSet
Validated: 5
EndChar

StartChar: e
Encoding: 101 101 33
Width: 550
VWidth: 0
Flags: HMW
AnchorPoint: "ced" 285 0 basechar 0
AnchorPoint: "dot" 275 673 basechar 0
LayerCount: 2
Fore
SplineSet
510 260 m 1
 510 230 l 1
 425 230 l 1
 425 260 l 1
 510 260 l 1
425 230 m 1
 99 230 l 1
 99 297 l 1
 425 297 l 1
 425 230 l 1
425 260 m 1
 425 379 377 455 275 455 c 0
 173 455 125 379 125 260 c 1
 40 260 l 1
 40 419 126 530 275 530 c 0
 424 530 510 419 510 260 c 1
 425 260 l 1
40 260 m 1
 125 260 l 1
 125 141 183 65 285 65 c 0
 349 65 389 91 426 140 c 1
 483 92 l 1
 436 28 377 -10 285 -10 c 0
 126 -10 40 101 40 260 c 1
EndSplineSet
Validated: 5
EndChar

StartChar: p
Encoding: 112 112 34
Width: 555
VWidth: 0
Flags: HMW
AnchorPoint: "ced" 300 0 basechar 0
AnchorPoint: "dot" 305 673 basechar 0
LayerCount: 2
Fore
SplineSet
140 260 m 0
 140 141 193 65 290 65 c 0
 387 65 435 141 435 260 c 4
 435 379 387 455 290 455 c 0
 193 455 140 379 140 260 c 0
105 260 m 0
 105 409 161 530 300 530 c 0
 439 530 520 419 520 260 c 4
 520 101 439 -10 300 -10 c 0
 161 -10 105 111 105 260 c 0
55 -200 m 1
 55 520 l 1
 140 520 l 1
 140 -200 l 1
 55 -200 l 1
EndSplineSet
Validated: 5
EndChar

StartChar: q
Encoding: 113 113 35
Width: 555
VWidth: 0
Flags: HMW
AnchorPoint: "ced" 255 0 basechar 0
AnchorPoint: "dot" 250 673 basechar 0
LayerCount: 2
Fore
SplineSet
415 260 m 4
 415 379 362 455 265 455 c 0
 168 455 120 379 120 260 c 0
 120 141 168 65 265 65 c 0
 362 65 415 141 415 260 c 4
450 260 m 4
 450 111 394 -10 255 -10 c 0
 116 -10 35 101 35 260 c 0
 35 419 116 530 255 530 c 0
 394 530 450 409 450 260 c 4
500 -200 m 5
 415 -200 l 5
 415 520 l 5
 500 520 l 5
 500 -200 l 5
EndSplineSet
Validated: 5
EndChar

StartChar: h
Encoding: 104 104 36
Width: 555
VWidth: 0
Flags: HMW
AnchorPoint: "ced" 440 0 basechar 0
AnchorPoint: "dot" 300 673 basechar 0
LayerCount: 2
Fore
SplineSet
485 320 m 1
 485 0 l 1
 400 0 l 1
 400 300 l 1
 485 320 l 1
70 730 m 1
 155 730 l 1
 155 0 l 1
 70 0 l 1
 70 730 l 1
400 300 m 1
 400 389 370 455 280 455 c 0
 201 455 155 390 155 280 c 1
 120 280 l 1
 120 419 181 530 300 530 c 0
 429 530 485 439 485 320 c 1
 400 300 l 1
EndSplineSet
Validated: 5
EndChar

StartChar: n
Encoding: 110 110 37
Width: 555
VWidth: 0
Flags: HMW
AnchorPoint: "ced" 450 0 basechar 0
AnchorPoint: "dot" 280 673 basechar 0
LayerCount: 2
Fore
SplineSet
485 320 m 1
 485 0 l 1
 400 0 l 1
 400 300 l 1
 485 320 l 1
70 520 m 1
 155 520 l 1
 155 0 l 1
 70 0 l 1
 70 520 l 1
400 300 m 1
 400 390 380 455 290 455 c 4
 212 455 155 390 155 280 c 1
 120 280 l 1
 120 419 191 530 310 530 c 4
 439 530 485 439 485 320 c 1
 400 300 l 1
EndSplineSet
EndChar

StartChar: m
Encoding: 109 109 38
Width: 830
VWidth: 0
Flags: HMW
AnchorPoint: "ced" 720 0 basechar 0
AnchorPoint: "dot" 410 673 basechar 0
LayerCount: 2
Fore
SplineSet
760 320 m 1
 760 0 l 1
 675 0 l 1
 675 300 l 1
 760 320 l 1
675 300 m 1
 675 390 675 460 580 460 c 4
 497 460 457 390 457 280 c 1
 422 280 l 1
 422 419 476 530 600 530 c 4
 724 530 760 439 760 320 c 1
 675 300 l 1
457 320 m 1
 457 0 l 1
 373 0 l 1
 373 300 l 1
 457 320 l 1
70 520 m 1
 155 520 l 1
 155 0 l 1
 70 0 l 1
 70 520 l 1
373 300 m 1
 373 390 365 460 270 460 c 4
 187 460 155 390 155 280 c 1
 120 280 l 1
 120 419 176 530 300 530 c 4
 424 530 457 439 457 320 c 1
 373 300 l 1
EndSplineSet
EndChar

StartChar: r
Encoding: 114 114 39
Width: 330
VWidth: 0
Flags: HMW
AnchorPoint: "ced" 125 0 basechar 0
AnchorPoint: "dot" 205 673 basechar 0
LayerCount: 2
Fore
SplineSet
70 520 m 1
 155 520 l 1
 155 0 l 1
 70 0 l 1
 70 520 l 1
315 435 m 5
 295 435 l 6
 191 435 155 380 155 270 c 1
 120 270 l 1
 120 409 146 520 315 520 c 5
 315 435 l 5
EndSplineSet
Validated: 5
EndChar

StartChar: u
Encoding: 117 117 40
Width: 557
VWidth: 0
Flags: HMW
AnchorPoint: "ced" 245 0 basechar 0
AnchorPoint: "dot" 275 673 basechar 0
LayerCount: 2
Fore
SplineSet
70 200 m 1
 70 520 l 1
 155 520 l 1
 155 220 l 1
 70 200 l 1
485 0 m 1
 400 0 l 1
 400 520 l 1
 485 520 l 1
 485 0 l 1
155 220 m 1
 155 130 175 65 265 65 c 4
 343 65 400 130 400 240 c 1
 435 240 l 1
 435 101 364 -10 245 -10 c 4
 116 -10 70 81 70 200 c 1
 155 220 l 1
EndSplineSet
EndChar

StartChar: g
Encoding: 103 103 41
Width: 560
VWidth: 0
Flags: HMW
AnchorPoint: "dot" 275 673 basechar 0
LayerCount: 2
Fore
SplineSet
268 -145 m 1
 268 -220 l 1
 151 -220 79 -172 32 -108 c 1
 88 -52 l 1
 125 -101 175 -145 268 -145 c 1
505 20 m 1
 420 20 l 1
 420 520 l 1
 505 520 l 1
 505 20 l 1
455 260 m 0
 455 111 404 -10 255 -10 c 0
 126 -10 30 101 30 260 c 0
 30 419 126 530 255 530 c 0
 404 530 455 409 455 260 c 0
420 260 m 0
 420 379 362 455 265 455 c 0
 168 455 115 379 115 260 c 0
 115 141 168 65 265 65 c 0
 362 65 420 141 420 260 c 0
420 20 m 1
 505 20 l 1
 505 -129 397 -220 268 -220 c 1
 268 -145 l 1
 355 -145 420 -79 420 20 c 1
EndSplineSet
Validated: 5
EndChar

StartChar: i
Encoding: 105 105 42
Width: 214
VWidth: 0
Flags: HMW
AnchorPoint: "ced" 105 0 basechar 0
LayerCount: 2
Fore
SplineSet
49 682 m 4
 49 714 75 740 107 740 c 0
 139 740 165 714 165 682 c 0
 165 650 139 624 107 624 c 0
 75 624 49 650 49 682 c 4
65 520 m 1
 150 520 l 1
 150 0 l 1
 65 0 l 1
 65 520 l 1
EndSplineSet
Validated: 1
EndChar

StartChar: t
Encoding: 116 116 43
Width: 275
VWidth: 0
Flags: HMW
AnchorPoint: "ced" 197 0 basechar 0
AnchorPoint: "dot" 225 673 basechar 0
LayerCount: 2
Fore
SplineSet
15 520 m 1
 250 520 l 1
 250 445 l 1
 15 445 l 1
 15 520 l 1
165 128 m 5
 80 110 l 5
 80 673 l 5
 165 673 l 5
 165 128 l 5
165 128 m 5
 165 78 188 70 216 70 c 1
 198 -10 l 1
 119 -10 80 21 80 110 c 5
 165 128 l 5
250 76.6298828125 m 1
 250 0.1025390625 l 1
 237.509765625 -6.5419921875 213.610351562 -10 198 -10 c 1
 216 70 l 1
 230.666992188 70 238.333007812 71.111328125 250 76.6298828125 c 1
EndSplineSet
Validated: 5
EndChar

StartChar: a
Encoding: 97 97 44
Width: 530
VWidth: 0
Flags: HMW
AnchorPoint: "ced" 420 0 basechar 0
AnchorPoint: "ring" 262 673 basechar 0
AnchorPoint: "dot" 262 673 basechar 0
LayerCount: 2
Fore
SplineSet
274 312 m 1
 424 312 l 1
 424 248 l 1
 304 248 l 1
 274 312 l 1
374 330 m 1
 374 410 348 455 262 455 c 1
 268 530 l 1
 401 530 460 469 460 330 c 1
 374 330 l 1
262 455 m 1
 188 455 142 432 97 392 c 1
 56 450 l 1
 108 499 166 530 268 530 c 1
 262 455 l 1
374 330 m 1
 460 330 l 1
 460 0 l 1
 374 0 l 1
 374 330 l 1
114 150 m 1
 114 77 161 65 234 65 c 0
 312 65 374 100 374 180 c 1
 410 180 l 1
 410 71 335 -10 206 -10 c 0
 127 -10 30 21 30 150 c 1
 114 150 l 1
274 312 m 1
 304 248 l 1
 175 248 114 229 114 150 c 1
 30 150 l 1
 30 295 157 312 274 312 c 1
EndSplineSet
EndChar

StartChar: j
Encoding: 106 106 45
Width: 238
VWidth: 0
Flags: HMW
LayerCount: 2
Fore
SplineSet
26 -135 m 1
 32 -210 l 1
 7.248046875 -210 -14.7939453125 -206.493164062 -34 -200.372070312 c 1
 -34 -119.961914062 l 1
 -18.8955078125 -129.1015625 0.0830078125 -135 26 -135 c 1
73 682 m 0
 73 714 99 740 131 740 c 0
 163 740 189 714 189 682 c 0
 189 650 163 624 131 624 c 0
 99 624 73 650 73 682 c 0
  Spiro
    73 682 o
    80.9108 711.233 o
    101.767 732.089 o
    131 740 o
    160.233 732.089 o
    181.089 711.233 o
    189 682 o
    181.089 652.767 o
    160.233 631.911 o
    131 624 o
    101.767 631.911 o
    80.9108 652.767 o
    0 0 z
  EndSpiro
89 520 m 1
 174 520 l 1
 174 -60 l 1
 89 -60 l 1
 89 520 l 1
  Spiro
    89 520 v
    174 520 v
    174 -60 v
    89 -60 v
    0 0 z
  EndSpiro
89 -60 m 1
 174 -60 l 1
 174 -139 121 -210 32 -210 c 1
 26 -135 l 1
 63 -135 89 -100 89 -60 c 1
EndSplineSet
Validated: 5
EndChar

StartChar: s
Encoding: 115 115 46
Width: 480
VWidth: 0
Flags: HMW
AnchorPoint: "ced" 245 0 basechar 0
AnchorPoint: "dot" 245 673 basechar 0
LayerCount: 2
Fore
SplineSet
360 150 m 1
 445 148 l 1
 445 69 394 -10 255 -10 c 0
 146 -10 80 37 35 104 c 1
 93 158 l 1
 129 108 176 65 250 65 c 0
 327 65 360 90 360 150 c 1
150 388 m 1
 65 388 l 1
 65 464 131 530 250 530 c 0
 339 530 401 496 433 448 c 1
 381 390 l 1
 359 422 318 455 250 455 c 0
 172 455 150 420 150 388 c 1
265 307 m 0
 381.639648438 289.899414062 445 248 445 148 c 1
 360 150 l 1
 360 195 333.594726562 224.76171875 235 236 c 0
 131.180664062 247.833984375 65 298 65 388 c 5
 150 388 l 1
 150 348 176.799804688 319.931640625 265 307 c 0
EndSplineSet
EndChar

StartChar: v
Encoding: 118 118 47
Width: 500
VWidth: 0
Flags: HMW
AnchorPoint: "ced" 252 0 basechar 0
AnchorPoint: "dot" 248 673 basechar 0
LayerCount: 2
Fore
SplineSet
300 0 m 1
 200 0 l 1
 200 5 l 1
 300 5 l 1
 300 0 l 1
220 5 m 1
 400 520 l 5
 490 520 l 1
 300 0 l 1
 220 5 l 1
10 520 m 1
 100 520 l 1
 280 5 l 1
 200 0 l 1
 10 520 l 1
EndSplineSet
EndChar

StartChar: f
Encoding: 102 102 48
Width: 275
VWidth: 0
Flags: HMW
AnchorPoint: "ced" 110 0 basechar 0
LayerCount: 2
Fore
SplineSet
20 520 m 1
 235 520 l 1
 235 445 l 1
 20 445 l 1
 20 520 l 1
159 590 m 1
 159 0 l 1
 74 0 l 1
 74 590 l 1
 159 590 l 1
159 590 m 1
 74 590 l 1
 74 669 109 740 208 740 c 1
 218 665 l 1
 173 665 159 629 159 590 c 1
218 665 m 1
 208 740 l 1
 232.751953125 740 249.793945312 734.493164062 265 725.372070312 c 5
 265 649.961914062 l 5
 249.895507812 660.1015625 235.916992188 665 218 665 c 1
EndSplineSet
EndChar

StartChar: y
Encoding: 121 121 49
Width: 505
VWidth: 0
Flags: HMW
AnchorPoint: "dot" 256 673 basechar 0
LayerCount: 2
Fore
SplineSet
20 520 m 5
 110 520 l 5
 305 23 l 5
 230 0 l 5
 20 520 l 5
138 -132 m 5
 144 -210 l 5
 87 -210 43 -184 16 -150 c 5
 56 -86 l 5
 73 -105 94 -132 138 -132 c 5
205 -60 m 6
 400 520 l 5
 485 520 l 5
 290 -60 l 6
 260.508789062 -139.55859375 233 -210 144 -210 c 5
 138 -132 l 5
 176 -132 190.153320312 -100.05078125 205 -60 c 6
EndSplineSet
Validated: 5
EndChar

StartChar: w
Encoding: 119 119 50
Width: 725
VWidth: 0
Flags: HMW
AnchorPoint: "ced" 525 0 basechar 0
AnchorPoint: "dot" 363 673 basechar 0
LayerCount: 2
Fore
SplineSet
330 520 m 1
 395 520 l 1
 395 460 l 1
 330 460 l 1
 330 520 l 1
565 0 m 1
 490 0 l 1
 490 5 l 1
 565 36 l 5
 565 0 l 1
490 5 m 1
 630 520 l 1
 715 520 l 1
 565 0 l 1
 490 5 l 1
340 460 m 1
 395 520 l 1
 555 36 l 5
 490 0 l 1
 340 460 l 1
235 0 m 1
 160 0 l 1
 160 36 l 5
 235 5 l 1
 235 0 l 1
170 36 m 5
 330 520 l 1
 385 460 l 1
 235 0 l 1
 170 36 l 5
10 520 m 1
 95 520 l 1
 235 5 l 1
 160 0 l 1
 10 520 l 1
EndSplineSet
EndChar

StartChar: x
Encoding: 120 120 51
Width: 510
VWidth: 0
Flags: HMW
AnchorPoint: "ced" 440 0 basechar 0
AnchorPoint: "dot" 260 673 basechar 0
LayerCount: 2
Fore
SplineSet
15 0 m 1
 390 520 l 1
 490 520 l 1
 115 0 l 1
 15 0 l 1
20 520 m 1
 120 520 l 1
 495 0 l 1
 395 0 l 1
 20 520 l 1
EndSplineSet
Validated: 5
EndChar

StartChar: z
Encoding: 122 122 52
Width: 495
VWidth: 0
Flags: HMW
AnchorPoint: "ced" 380 0 basechar 0
AnchorPoint: "dot" 245 673 basechar 0
LayerCount: 2
Fore
SplineSet
30 65 m 1
 50 65 l 1
 50 0 l 1
 30 0 l 1
 30 65 l 1
50 75 m 1
 450 75 l 1
 450 0 l 1
 50 0 l 1
 50 75 l 1
420 520 m 1
 440 520 l 1
 440 455 l 1
 420 455 l 1
 420 520 l 1
50 520 m 1
 420 520 l 1
 420 445 l 1
 50 445 l 1
 50 520 l 1
345 455 m 1
 440 455 l 1
 125 65 l 1
 30 65 l 1
 345 455 l 1
EndSplineSet
Validated: 5
EndChar

StartChar: zero
Encoding: 48 48 53
Width: 600
VWidth: 0
Flags: HMW
LayerCount: 2
Fore
SplineSet
145 350 m 0
 145 193 188 70 300 70 c 0
 412 70 455 193 455 350 c 0
 455 507 412 630 300 630 c 0
 188 630 145 507 145 350 c 0
55 350 m 4
 55 559 135 710 300 710 c 0
 465 710 545 559 545 350 c 4
 545 131 465 -10 300 -10 c 0
 135 -10 55 131 55 350 c 4
EndSplineSet
Validated: 1
EndChar

StartChar: one
Encoding: 49 49 54
Width: 600
VWidth: 0
Flags: HMW
LayerCount: 2
Fore
SplineSet
430 710 m 1
 430 686 l 1
 360 686 l 1
 370 710 l 1
 430 710 l 1
370 710 m 1
 406 631 l 1
 136 531 l 5
 120 603 l 5
 370 710 l 1
340 680 m 1
 430 710 l 1
 430 0 l 1
 340 0 l 1
 340 680 l 1
EndSplineSet
EndChar

StartChar: six
Encoding: 54 54 55
Width: 600
VWidth: 0
Flags: HMW
LayerCount: 2
Fore
SplineSet
130 230 m 1
 95 230 l 1
 95 359 201 465 330 465 c 5
 300 400 l 5
 192 400 130 320 130 230 c 1
130 230 m 0
 130 140 192 60 300 60 c 0
 408 60 470 140 470 230 c 0
 470 320 408 400 300 400 c 5
 330 465 l 5
 459 465 550 359 550 230 c 0
 550 101 449 -10 300 -10 c 0
 151 -10 50 101 50 230 c 0
 50 287.265625 73.9306640625 347.206054688 108 397 c 6
 329 700 l 1
 429 700 l 1
 177.537109375 371.75390625 l 5
 185.174804688 364.909179688 l 5
 146.650390625 335.858398438 130 281.161132812 130 230 c 0
EndSplineSet
Validated: 5
EndChar

StartChar: period
Encoding: 46 46 56
Width: 230
VWidth: 0
Flags: HMW
LayerCount: 2
Fore
SplineSet
50 55 m 4
 50 91 79 120 115 120 c 4
 151 120 180 91 180 55 c 4
 180 19 151 -10 115 -10 c 4
 79 -10 50 19 50 55 c 4
EndSplineSet
Validated: 1
EndChar

StartChar: comma
Encoding: 44 44 58
Width: 254
VWidth: 0
Flags: HMW
LayerCount: 2
Fore
SplineSet
70 55 m 0
 70 91 99 120 137 120 c 0
 175 120 204 91 204 55 c 0
 204 43 200.228515625 24.197265625 191 10 c 2
 100 -130 l 1
 50 -130 l 1
 110 -5 l 1
 89 3 70 27 70 55 c 0
EndSplineSet
Validated: 1
EndChar

StartChar: two
Encoding: 50 50 60
Width: 600
VWidth: 0
Flags: HMW
LayerCount: 2
Fore
SplineSet
50 65 m 1
 70 65 l 1
 70 0 l 1
 50 0 l 1
 50 65 l 1
435 516 m 1
 435 575 387 635 300 635 c 0
 211 635 159 568 124 485 c 5
 50 523 l 1
 92 629 182 710 300 710 c 0
 429 710 520 615 520 516 c 1
 435 516 l 1
70 0 m 1
 70 75 l 1
 550 75 l 1
 550 0 l 1
 70 0 l 1
364 251 m 2
 160 65 l 1
 50 65 l 1
 303 300 l 2
 399.442382812 388.848632812 435 445 435 516 c 1
 520 516 l 1
 520 406 467.044921875 344.953125 364 251 c 2
EndSplineSet
Validated: 5
EndChar

StartChar: three
Encoding: 51 51 62
Width: 600
VWidth: 0
Flags: HMW
LayerCount: 2
Fore
SplineSet
250 384 m 1
 437 384 550 347 550 197 c 0
 550 57 427 -10 300 -10 c 4
 190 -10 116 24 50 119 c 5
 105 172 l 1
 146 107 212 64 300 64 c 4
 383 64 465 108 465 197 c 0
 465 286 393 330 250 330 c 1
 250 384 l 1
75 602 m 1
 124 660 186 710 300 710 c 0
 434 710 520 629 520 530 c 0
 520 411 424 350 250 350 c 1
 250 405 l 1
 380 405 435 452 435 520 c 0
 435 588 390 635 300 635 c 0
 217 635 171 597 131 549 c 1
 75 602 l 1
EndSplineSet
Validated: 5
EndChar

StartChar: eight
Encoding: 56 56 63
Width: 600
VWidth: 0
Flags: HMW
LayerCount: 2
Fore
SplineSet
165 520 m 0
 165 452 220 405 300 405 c 0
 380 405 435 452 435 520 c 4
 435 588 380 635 300 635 c 0
 220 635 165 588 165 520 c 0
80 530 m 0
 80 629 176 710 300 710 c 0
 424 710 520 629 520 530 c 0
 520 411 424 350 300 350 c 0
 176 350 80 411 80 530 c 0
50 187 m 4
 50 327 163 384 300 384 c 0
 437 384 550 327 550 187 c 4
 550 67 437 -10 300 -10 c 0
 163 -10 50 67 50 187 c 4
135 197 m 0
 135 108 207 64 300 64 c 0
 393 64 465 108 465 197 c 4
 465 286 393 330 300 330 c 0
 207 330 135 286 135 197 c 0
EndSplineSet
Validated: 5
EndChar

StartChar: four
Encoding: 52 52 64
Width: 600
VWidth: 0
Flags: HMW
LayerCount: 2
Fore
SplineSet
40 210 m 5
 60 210 l 5
 60 145 l 5
 40 145 l 5
 40 210 l 5
60 220 m 5
 550 220 l 5
 550 145 l 5
 60 145 l 5
 60 220 l 5
470 700 m 1
 470 676 l 1
 375 676 l 1
 375 700 l 1
 470 700 l 1
375 700 m 1
 440 679 l 1
 125 210 l 5
 40 210 l 5
 375 700 l 1
385 680 m 1
 470 700 l 1
 470 0 l 1
 385 0 l 1
 385 680 l 1
EndSplineSet
Validated: 5
EndChar

StartChar: five
Encoding: 53 53 65
Width: 600
VWidth: 0
Flags: HMW
LayerCount: 2
Fore
SplineSet
70 311 m 1
 80 346 l 1
 130 346 l 1
 130 311 l 5
 70 311 l 1
320 455 m 1
 447 455 550 360 550 220 c 0
 550 70 427 -10 300 -10 c 0
 210 -10 106 14 40 99 c 1
 100 157 l 1
 141 102 227 66 300 66 c 0
 383 66 465 121 465 220 c 0
 465 309 413 380 300 380 c 1
 320 455 l 1
70 311 m 1
 120 700 l 1
 195 700 l 1
 155 341 l 1
 70 311 l 1
120 700 m 1
 510 700 l 1
 510 625 l 1
 120 625 l 1
 120 700 l 1
300 380 m 1
 223 380 170 360 130 311 c 5
 100 311 l 1
 130 400 181 455 320 455 c 1
 300 380 l 1
EndSplineSet
EndChar

StartChar: seven
Encoding: 55 55 66
Width: 600
VWidth: 0
Flags: HMW
LayerCount: 2
Fore
SplineSet
550 640 m 5
 241 0 l 1
 154 0 l 1
 464 640 l 1
 550 640 l 5
529 700 m 5
 550 700 l 5
 550 640 l 5
 529 640 l 5
 529 700 l 5
50 700 m 1
 529 700 l 5
 529 625 l 5
 50 625 l 1
 50 700 l 1
EndSplineSet
Validated: 5
EndChar

StartChar: exclam
Encoding: 33 33 67
Width: 270
VWidth: 0
Flags: HMW
LayerCount: 2
Fore
SplineSet
86 490 m 1
 184 490 l 1
 157 250 l 1
 113 250 l 1
 86 490 l 1
86 730 m 1
 184 730 l 1
 184 490 l 1
 86 490 l 1
 86 730 l 1
EndSplineSet
Refer: 56 46 S 1 0 0 1 20 0 2
Validated: 5
EndChar

StartChar: quotesingle
Encoding: 39 39 69
Width: 240
VWidth: 0
Flags: HMW
LayerCount: 2
Fore
SplineSet
65 685 m 0
 65 715 90 740 120 740 c 0
 150 740 175 715 175 685 c 0
 175 678.99609375 174.080078125 673.501953125 173.157226562 667.750976562 c 2
 142 480 l 1
 98 480 l 1
 66.8427734375 667.750976562 l 2
 65.9443359375 673.344726562 65 678.99609375 65 685 c 0
EndSplineSet
Validated: 1
EndChar

StartChar: numbersign
Encoding: 35 35 70
Width: 810
VWidth: 0
Flags: HMW
LayerCount: 2
Fore
SplineSet
710 240 m 1
 710 165 l 1
 60 165 l 1
 60 240 l 1
 710 240 l 1
750 535 m 1
 750 460 l 1
 100 460 l 1
 100 535 l 1
 750 535 l 1
565 700 m 1
 645 700 l 1
 525 0 l 1
 445 0 l 1
 565 700 l 1
285 700 m 1
 365 700 l 1
 245 0 l 1
 165 0 l 1
 285 700 l 1
EndSplineSet
Validated: 5
EndChar

StartChar: percent
Encoding: 37 37 71
Width: 940
VWidth: 0
Flags: HMW
LayerCount: 2
Fore
SplineSet
100 520 m 0
 100 451 154 395 220 395 c 0
 286 395 340 451 340 520 c 0
 340 589 286 645 220 645 c 0
 154 645 100 589 100 520 c 0
30 520 m 0
 30 625 115 710 220 710 c 0
 325 710 410 625 410 520 c 0
 410 415 325 330 220 330 c 0
 115 330 30 415 30 520 c 0
600 180 m 0
 600 111 654 55 720 55 c 0
 786 55 840 111 840 180 c 0
 840 249 786 305 720 305 c 0
 654 305 600 249 600 180 c 0
530 180 m 0
 530 285 615 370 720 370 c 0
 825 370 910 285 910 180 c 0
 910 75 825 -10 720 -10 c 0
 615 -10 530 75 530 180 c 0
680 700 m 1
 770 700 l 1
 260 0 l 5
 170 0 l 1
 680 700 l 1
EndSplineSet
EndChar

StartChar: dollar
Encoding: 36 36 72
Width: 600
VWidth: 0
Flags: HMW
LayerCount: 2
Fore
SplineSet
258 780 m 5
 328 780 l 5
 328 -80 l 5
 258 -80 l 5
 258 780 l 5
EndSplineSet
Refer: 21 83 N 1 0 0 1 -10 0 2
EndChar

StartChar: asterisk
Encoding: 42 42 73
Width: 324
VWidth: 0
Flags: HMW
LayerCount: 2
Fore
SplineSet
45 483 m 5
 20 527 l 5
 279 677 l 5
 304 633 l 5
 45 483 l 5
20 633 m 5
 45 677 l 5
 304 527 l 5
 279 483 l 5
 20 633 l 5
137 730 m 5
 187 730 l 5
 187 430 l 5
 137 430 l 5
 137 730 l 5
EndSplineSet
Validated: 5
EndChar

StartChar: slash
Encoding: 47 47 74
Width: 430
VWidth: 0
Flags: HMW
LayerCount: 2
Fore
SplineSet
380 780 m 5
 450 780 l 5
 50 -80 l 5
 -20 -80 l 5
 380 780 l 5
EndSplineSet
Validated: 1
EndChar

StartChar: ampersand
Encoding: 38 38 75
Width: 715
VWidth: 0
Flags: HMW
LayerCount: 2
Fore
SplineSet
305 425 m 0
 381.7890625 445.8046875 415 490 415 550 c 1
 495 550 l 1
 495 455 427.557617188 405.01171875 355 385 c 0
 258.161132812 358.291015625 150 311 150 210 c 1
 70 200 l 1
 70 360 199.364257812 396.379882812 305 425 c 0
255 550 m 1
 175 550 l 1
 175 659 246 710 335 710 c 0
 424 710 495 659 495 550 c 1
 415 550 l 1
 415 609 382 635 335 635 c 0
 288 635 255 609 255 550 c 1
301 311 m 2
 208.989257812 412.038085938 175 460 175 550 c 1
 255 550 l 1
 255 489 275.012695312 454.572265625 361 359 c 2
 665 0 l 1
 565 0 l 1
 301 311 l 2
580 310 m 1
 650 284 l 1
 620 115 489 -10 320 -10 c 0
 171 -10 70 71 70 200 c 1
 150 210 l 1
 150 121 223 65 330 65 c 0
 447 65 550 161 580 310 c 1
EndSplineSet
EndChar

StartChar: parenleft
Encoding: 40 40 76
Width: 275
VWidth: 0
Flags: HMW
LayerCount: 2
Fore
SplineSet
195 740 m 5
 255 720 l 5
 95 460 95 70 255 -190 c 5
 195 -210 l 5
 -5 100 -5 430 195 740 c 5
EndSplineSet
Validated: 33
EndChar

StartChar: hyphen
Encoding: 45 45 78
Width: 430
VWidth: 0
Flags: HMW
LayerCount: 2
Fore
SplineSet
65 335 m 5
 365 335 l 5
 365 260 l 5
 65 260 l 5
 65 335 l 5
EndSplineSet
Validated: 1
EndChar

StartChar: plus
Encoding: 43 43 79
Width: 510
VWidth: 0
Flags: HMW
LayerCount: 2
Fore
SplineSet
295 589 m 5
 295 134 l 5
 215 134 l 5
 215 589 l 5
 295 589 l 5
30 399 m 5
 480 399 l 5
 480 324 l 5
 30 324 l 5
 30 399 l 5
EndSplineSet
Validated: 5
EndChar

StartChar: equal
Encoding: 61 61 80
Width: 510
VWidth: 0
Flags: HMW
LayerCount: 2
Fore
SplineSet
30 275 m 5
 480 275 l 5
 480 200 l 5
 30 200 l 5
 30 275 l 5
30 510 m 5
 480 510 l 5
 480 435 l 5
 30 435 l 5
 30 510 l 5
EndSplineSet
Validated: 1
EndChar

StartChar: backslash
Encoding: 92 92 81
Width: 430
VWidth: 0
Flags: HMW
LayerCount: 2
Fore
SplineSet
50 780 m 5
 450 -80 l 5
 380 -80 l 5
 -20 780 l 5
 50 780 l 5
EndSplineSet
Validated: 1
EndChar

StartChar: less
Encoding: 60 60 82
Width: 510
VWidth: 0
Flags: HMW
LayerCount: 2
Fore
SplineSet
30 395 m 5
 480 195 l 5
 480 120 l 5
 30 320 l 5
 30 395 l 5
30 395 m 5
 480 595 l 5
 480 520 l 5
 30 320 l 5
 30 395 l 5
EndSplineSet
Validated: 5
EndChar

StartChar: question
Encoding: 63 63 84
Width: 555
VWidth: 0
Flags: HMW
LayerCount: 2
Fore
SplineSet
334 438 m 0
 389.67578125 466.341796875 415 506 415 556 c 1
 500 556 l 1
 500 461 458.134765625 411.75 380 374 c 0
 321.237304688 345.609375 295 331 295 250 c 1
 215 250 l 1
 195 400 264.790039062 402.768554688 334 438 c 0
415 556 m 1
 415 615 372 665 285 665 c 0
 196 665 144 613 109 550 c 1
 40 593 l 1
 82 679 162 740 285 740 c 0
 419 740 500 655 500 556 c 1
 415 556 l 1
EndSplineSet
Refer: 56 46 S 1 0 0 1 145 0 2
Validated: 37
EndChar

StartChar: at
Encoding: 64 64 85
Width: 1050
VWidth: 0
Flags: HMW
LayerCount: 2
Fore
SplineSet
525 260 m 1048
700 260 m 0,0,1
 700 379 622 455 525 455 c 0,2,3
 428 455 350 379 350 260 c 0,4,5
 350 141 428 65 525 65 c 0,6,7
 622 65 700 141 700 260 c 0,0,1
735 260 m 0,8,9
 735 111 664 -10 515 -10 c 0,10,11
 386 -10 270 101 270 260 c 0,12,13
 270 419 386 530 515 530 c 0,14,15
 664 530 735 409 735 260 c 0,8,9
780 520 m 1,16,-1
 780 120 l 1,17,-1
 700 100 l 1,18,-1
 700 520 l 1,19,-1
 780 520 l 1,16,-1
55 260 m 0,16,17
 55 519 246 730 525 730 c 0,18,19
 784 730 995 559 995 300 c 0,20,21
 995 63.638671875 873.768554688 -10.2880859375 797.8671875 -10.2880859375 c 0,0,0
 723.793945312 -10.2880859375 700 43.19921875 700 100 c 1,1,-1
 780 120 l 5,2,3
 780 60.53515625 790.893554688 32.859375 827.37890625 32.859375 c 4,0,0
 878.646484375 32.859375 964 115.765625 964 300 c 0,1,2
 964 543 768 701 525 701 c 0,3,4
 262 701 86 503 86 260 c 0,5,6
 86 17 282 -181 525 -181 c 1,7,-1
 525 -210 l 1,8,9
 266 -210 55 1 55 260 c 0,16,17
EndSplineSet
Validated: 5
EndChar

StartChar: bracketleft
Encoding: 91 91 86
Width: 295
VWidth: 0
Flags: HMW
LayerCount: 2
Fore
SplineSet
125 654 m 1
 125 730 l 1
 275 730 l 1
 275 654 l 1
 125 654 l 1
125 -200 m 1
 125 -124 l 1
 275 -124 l 1
 275 -200 l 1
 125 -200 l 1
45 730 m 1
 125 730 l 1
 125 -200 l 1
 45 -200 l 1
 45 730 l 1
EndSplineSet
Validated: 5
EndChar

StartChar: asciicircum
Encoding: 94 94 88
Width: 510
VWidth: 0
Flags: HMW
LayerCount: 2
Fore
SplineSet
420 430 m 5
 220 730 l 5
 290 730 l 5
 490 430 l 5
 420 430 l 5
220 730 m 5
 290 730 l 5
 90 430 l 5
 20 430 l 5
 220 730 l 5
EndSplineSet
Validated: 5
EndChar

StartChar: underscore
Encoding: 95 95 89
Width: 600
VWidth: 0
Flags: HMW
LayerCount: 2
Fore
SplineSet
-2 -80 m 5
 602 -80 l 5
 602 -160 l 5
 -2 -160 l 5
 -2 -80 l 5
EndSplineSet
Validated: 1
EndChar

StartChar: braceleft
Encoding: 123 123 90
Width: 349
VWidth: 0
Flags: HMW
LayerCount: 2
Fore
SplineSet
45 305 m 5
 63 305 l 5
 63 225 l 5
 45 225 l 5
 45 305 l 5
147 150 m 5
 227 150 l 5
 227 -50 l 5
 147 -50 l 5
 147 150 l 5
147 580 m 5
 227 580 l 5
 227 380 l 5
 147 380 l 5
 147 580 l 5
147 380 m 5
 227 380 l 5
 227 301 170 250 51 250 c 5
 45 305 l 5
 133 305 147 340 147 380 c 5
147 150 m 5
 147 190 123 225 45 225 c 5
 51 280 l 5
 170 280 227 229 227 150 c 5
 147 150 l 5
227 580 m 5
 147 580 l 5
 147 659 204 730 323 730 c 5
 329 655 l 5
 251 655 227 620 227 580 c 5
227 -50 m 5
 227 -90 251 -125 329 -125 c 5
 323 -200 l 5
 204 -200 147 -129 147 -50 c 5
 227 -50 l 5
EndSplineSet
Validated: 5
EndChar

StartChar: bar
Encoding: 124 124 92
Width: 300
VWidth: 0
Flags: HMW
LayerCount: 2
Fore
SplineSet
185 780 m 5
 185 -80 l 5
 115 -80 l 5
 115 780 l 5
 185 780 l 5
EndSplineSet
Validated: 1
EndChar

StartChar: asciitilde
Encoding: 126 126 93
Width: 470
VWidth: 0
Flags: HMW
LayerCount: 2
Fore
SplineSet
115 174 m 5
 45 194 l 5
 49.5654296875 272.260742188 96.859375 310.638671875 148.23046875 310.638671875 c 4
 211.844726562 310.638671875 267.365234375 246.962890625 311.607421875 246.962890625 c 4
 356.108398438 246.962890625 365 276.58984375 365 314 c 5
 425 294 l 5
 420.434570312 205.739257812 373.989257812 177.361328125 323.821289062 177.361328125 c 4
 262.262695312 177.361328125 209.831054688 241.037109375 167.247070312 241.037109375 c 4
 123.446289062 241.037109375 115 211.41015625 115 174 c 5
EndSplineSet
Validated: 1
EndChar

StartChar: tilde
Encoding: 732 732 98
Width: 500
VWidth: 0
Flags: HMW
AnchorPoint: "dot" 250 610 basechar 0
LayerCount: 2
Fore
SplineSet
130 600 m 1
 60 620 l 1
 64.5654296875 698.260742188 111.859375 736.638671875 163.23046875 736.638671875 c 0
 226.844726562 736.638671875 282.365234375 672.962890625 326.607421875 672.962890625 c 0
 371.108398438 672.962890625 380 702.58984375 380 740 c 1
 440 720 l 1
 435.434570312 631.739257812 388.989257812 603.361328125 338.821289062 603.361328125 c 0
 277.262695312 603.361328125 224.831054688 667.037109375 182.247070312 667.037109375 c 0
 138.446289062 667.037109375 130 637.41015625 130 600 c 1
EndSplineSet
Validated: 1
EndChar

StartChar: dotaccent
Encoding: 729 729 99
Width: 500
VWidth: 0
Flags: MW
AnchorPoint: "dot" 250 590 basechar 0
LayerCount: 2
Fore
SplineSet
185 645 m 0
 185 681 214 710 250 710 c 0
 286 710 315 681 315 645 c 0
 315 609 286 580 250 580 c 0
 214 580 185 609 185 645 c 0
EndSplineSet
Validated: 1
EndChar

StartChar: ring
Encoding: 730 730 100
Width: 500
VWidth: 0
Flags: HMW
AnchorPoint: "ring" 250 590 basechar 0
LayerCount: 2
Fore
SplineSet
200 680 m 0
 200 651 221 630 250 630 c 0
 279 630 300 651 300 680 c 0
 300 709 279 730 250 730 c 4
 221 730 200 709 200 680 c 0
150 680 m 0
 150 735 195 780 250 780 c 0
 305 780 350 735 350 680 c 0
 350 625 305 580 250 580 c 0
 195 580 150 625 150 680 c 0
EndSplineSet
Validated: 1
EndChar

StartChar: breve
Encoding: 728 728 101
Width: 500
VWidth: 0
Flags: HMW
AnchorPoint: "dot" 244 579 basechar 0
LayerCount: 2
Fore
SplineSet
244 659 m 1
 184 659 149 683 149 731 c 1
 74 725 l 1
 74 636 145 579 244 579 c 1
 244 659 l 1
244 659 m 1
 244 579 l 1
 343 579 414 636 414 725 c 1
 339 731 l 1
 339 683 304 659 244 659 c 1
EndSplineSet
Validated: 5
EndChar

StartChar: circumflex
Encoding: 710 710 102
Width: 500
VWidth: 0
Flags: HMW
AnchorPoint: "dot" 250 630 basechar 0
LayerCount: 2
Fore
SplineSet
315 630 m 1
 215 730 l 1
 285 730 l 1
 385 630 l 1
 315 630 l 1
215 730 m 1
 285 730 l 1
 185 630 l 1
 115 630 l 1
 215 730 l 1
EndSplineSet
Validated: 5
EndChar

StartChar: caron
Encoding: 711 711 103
Width: 500
VWidth: 0
Flags: HMW
AnchorPoint: "dot" 250 630 basechar 0
LayerCount: 2
Fore
SplineSet
185 730 m 1
 285 630 l 1
 215 630 l 1
 115 730 l 1
 185 730 l 1
285 630 m 1
 215 630 l 1
 315 730 l 1
 385 730 l 1
 285 630 l 1
EndSplineSet
Validated: 5
EndChar

StartChar: cent
Encoding: 162 162 105
Width: 600
VWidth: 0
Flags: HMW
LayerCount: 2
Fore
SplineSet
315 600 m 1
 355 600 l 1
 355 -80 l 1
 315 -80 l 1
 315 600 l 1
145 260 m 0
 145 151 228 65 335 65 c 0
 399 65 455 94 492 143 c 1
 543 92 l 1
 496 28 422 -10 335 -10 c 0
 186 -10 65 111 65 260 c 0
 65 409 186 530 335 530 c 0
 422 530 495 491 542 428 c 1
 492 377 l 1
 455 426 399 455 335 455 c 0
 228 455 145 369 145 260 c 0
EndSplineSet
Validated: 5
EndChar

StartChar: sterling
Encoding: 163 163 108
Width: 600
VWidth: 0
Flags: HMW
LayerCount: 2
Fore
SplineSet
155 45 m 1
 77 -1 l 1
 247 272.541992188 115 278.921875 115 530 c 1
 195 530 l 1
 195 346.112304688 305 219.735351562 155 45 c 1
145 -25 m 1
 77 -1 l 1
 151.565429688 77.2607421875 186.859375 91.638671875 258.23046875 91.638671875 c 0
 321.844726562 91.638671875 362.365234375 37.962890625 406.607421875 37.962890625 c 0
 451.108398438 37.962890625 477 57.58984375 497 95 c 1
 555 70 l 1
 530.434570312 -18.2607421875 463.989257812 -31.638671875 413.821289062 -31.638671875 c 0
 332.262695312 -31.638671875 274.831054688 32.037109375 232.247070312 32.037109375 c 0
 188.446289062 32.037109375 165 12.41015625 145 -25 c 1
45 380 m 5
 343 380 l 5
 343 305 l 5
 45 305 l 5
 45 380 l 5
305 635 m 1
 299 710 l 1
 381 710 450 669 487 610 c 1
 445 551 l 1
 418 590 369 635 305 635 c 1
195 530 m 1
 115 530 l 1
 115 629 190 710 299 710 c 1
 305 635 l 1
 230 635 195 589 195 530 c 1
EndSplineSet
Validated: 37
EndChar

StartChar: currency
Encoding: 164 164 109
Width: 600
VWidth: 0
Flags: HMW
LayerCount: 2
Fore
SplineSet
133 199 m 1
 184 148 l 1
 88 52 l 1
 37 103 l 1
 133 199 l 1
411 153 m 1
 462 204 l 1
 563 103 l 1
 512 52 l 1
 411 153 l 1
512 578 m 1
 563 527 l 1
 450 414 l 1
 399 465 l 1
 512 578 l 1
37 527 m 1
 88 578 l 1
 201 465 l 1
 150 414 l 1
 37 527 l 1
148 315 m 0
 148 228 214 159 300 159 c 0
 386 159 452 228 452 315 c 0
 452 402 386 471 300 471 c 0
 214 471 148 402 148 315 c 0
84 315 m 0
 84 434 181 531 300 531 c 0
 419 531 516 434 516 315 c 0
 516 196 419 99 300 99 c 0
 181 99 84 196 84 315 c 0
EndSplineSet
Validated: 5
EndChar

StartChar: brokenbar
Encoding: 166 166 111
Width: 300
VWidth: 0
Flags: HMW
LayerCount: 2
Fore
SplineSet
185 460 m 5
 115 460 l 5
 115 780 l 1
 185 780 l 1
 185 460 l 5
185 280 m 1
 185 -80 l 1
 115 -80 l 1
 115 280 l 1
 185 280 l 1
EndSplineSet
Validated: 1
EndChar

StartChar: section
Encoding: 167 167 112
Width: 520
VWidth: 0
Flags: HMW
LayerCount: 2
Fore
SplineSet
395 140 m 1
 475 140 l 1
 475 61 414 -10 275 -10 c 0
 166 -10 100 37 45 104 c 1
 100 155 l 1
 146 105 197 65 275 65 c 0
 348 65 395 90 395 140 c 1
280 287 m 0
 397 268 475 260 475 140 c 1
 395 140 l 1
 395 180 358.594726562 200.76171875 250 216 c 0
 146.522460938 230.520507812 10 328 150 473 c 5
 210 473 l 5
 110 343 182.280273438 302.869140625 280 287 c 0
170 573 m 1
 90 573 l 1
 90 649 166 710 275 710 c 0
 384 710 436 670 478 628 c 1
 429 573 l 1
 391 606 353 635 275 635 c 0
 197 635 170 605 170 573 c 1
300 498 m 0
 417 479 555 400 415 250 c 5
 355 250 l 5
 455 380 378.594726562 411.76171875 270 427 c 0
 166.522460938 441.520507812 90 478 90 573 c 1
 170 573 l 1
 170 523 202.280273438 513.869140625 300 498 c 0
EndSplineSet
Validated: 37
EndChar

StartChar: copyright
Encoding: 169 169 114
Width: 850
VWidth: 0
Flags: HMW
LayerCount: 2
Fore
SplineSet
113 350 m 0
 113 174 254 30 425 30 c 0
 596 30 737 174 737 350 c 0
 737 526 596 670 425 670 c 0
 254 670 113 526 113 350 c 0
70 350 m 0
 70 549 230 710 425 710 c 0
 620 710 780 549 780 350 c 0
 780 151 620 -10 425 -10 c 0
 230 -10 70 151 70 350 c 0
EndSplineSet
Refer: 8 67 S 0.5 0 0 0.5 240.5 175 2
EndChar

StartChar: registered
Encoding: 174 174 116
Width: 850
VWidth: 0
Flags: HMW
LayerCount: 2
Fore
SplineSet
113 350 m 0
 113 174 254 30 425 30 c 0
 596 30 737 174 737 350 c 0
 737 526 596 670 425 670 c 0
 254 670 113 526 113 350 c 0
70 350 m 0
 70 549 230 710 425 710 c 0
 620 710 780 549 780 350 c 0
 780 151 620 -10 425 -10 c 0
 230 -10 70 151 70 350 c 0
EndSplineSet
Refer: 17 82 S 0.5 0 0 0.5 272 175 2
EndChar

StartChar: degree
Encoding: 176 176 119
Width: 400
VWidth: 0
Flags: HMW
LayerCount: 2
Fore
SplineSet
130 680 m 0
 130 641 161 610 200 610 c 0
 239 610 270 641 270 680 c 0
 270 719 239 750 200 750 c 0
 161 750 130 719 130 680 c 0
100 680 m 0
 100 735 145 780 200 780 c 0
 255 780 300 735 300 680 c 0
 300 625 255 580 200 580 c 0
 145 580 100 625 100 680 c 0
EndSplineSet
Validated: 1
EndChar

StartChar: mu
Encoding: 181 181 120
Width: 557
VWidth: 0
Flags: HMW
LayerCount: 2
Fore
SplineSet
70 220 m 1
 150 220 l 1
 150 -198 l 1
 70 -198 l 1
 70 220 l 1
EndSplineSet
Refer: 40 117 N 1 0 0 1 0 0 2
EndChar

StartChar: grave
Encoding: 96 96 123
Width: 320
VWidth: 0
Flags: HMW
AnchorPoint: "dot" 200 590 basechar 0
LayerCount: 2
Fore
SplineSet
190 590 m 1
 70 730 l 1
 170 730 l 1
 250 590 l 1
 190 590 l 1
EndSplineSet
Validated: 1
EndChar

StartChar: acute
Encoding: 180 180 124
Width: 320
VWidth: 0
Flags: HMW
AnchorPoint: "dot" 120 590 basechar 0
LayerCount: 2
Fore
SplineSet
130 590 m 1
 70 590 l 1
 150 730 l 1
 250 730 l 1
 130 590 l 1
EndSplineSet
Validated: 1
EndChar

StartChar: logicalnot
Encoding: 172 172 126
Width: 540
VWidth: 0
Flags: HMW
LayerCount: 2
Fore
SplineSet
405 435 m 5
 475 435 l 5
 475 275 l 5
 405 275 l 5
 405 435 l 5
EndSplineSet
Refer: 78 45 S 1.13333 0 0 1 -8.66667 100 2
Validated: 1
EndChar

StartChar: macron
Encoding: 175 175 127
Width: 300
VWidth: 0
Flags: HMW
LayerCount: 2
Fore
SplineSet
-2 800 m 1
 302 800 l 5
 302 720 l 5
 -2 720 l 1
 -2 800 l 1
EndSplineSet
Validated: 1
EndChar

StartChar: paragraph
Encoding: 182 182 130
Width: 600
VWidth: 0
Flags: HMW
LayerCount: 2
Fore
SplineSet
445 700 m 1
 445 656 l 1
 353 656 l 1
 353 700 l 1
 445 700 l 1
525 700 m 1
 525 0 l 1
 445 0 l 1
 445 700 l 1
 525 700 l 1
375 700 m 1
 375 0 l 1
 295 0 l 1
 295 700 l 1
 375 700 l 1
295 260 m 1
 196 260 75 351 75 480 c 0
 75 609 196 700 295 700 c 1
 295 520 295 440 295 260 c 1
EndSplineSet
Validated: 5
EndChar

StartChar: cedilla
Encoding: 184 184 131
Width: 320
VWidth: 0
Flags: HMW
AnchorPoint: "ced" 146 -1 basechar 0
LayerCount: 2
Fore
SplineSet
84 30 m 5
 124 30 l 5
 174 -4 239 -44 239 -102 c 4
 239 -149 217 -184 150 -184 c 4
 113 -184 75 -170 54 -155 c 5
 74 -125 l 5
 83 -128 103 -140 133 -140 c 4
 164 -140 188 -131 188 -99 c 4
 188 -64 131 -9 84 30 c 5
EndSplineSet
Validated: 1
EndChar

StartChar: dotlessi
Encoding: 305 305 225
Width: 250
VWidth: 0
Flags: HMW
AnchorPoint: "ced" 125 0 basechar 0
LayerCount: 2
Fore
SplineSet
85 520 m 1
 165 520 l 1
 165 0 l 1
 85 0 l 1
 85 520 l 1
EndSplineSet
Validated: 1
EndChar

StartChar: uni0237
Encoding: 567 567 349
Width: 250
VWidth: 0
Flags: W
HStem: -210 75<-47.9045 68.9875> 500 20G<89 169>
VStem: 89 80<-116.766 520>
LayerCount: 2
Fore
SplineSet
89 520 m 1
 169 520 l 1
 169 -60 l 1
 89 -60 l 1
 89 520 l 1
28 -135 m 1
 34 -210 l 1
 -23 -210 -73 -194 -100 -160 c 1
 -62 -101 l 1
 -45 -120 -15 -135 28 -135 c 1
89 -60 m 1
 169 -60 l 1
 169 -139 123 -210 34 -210 c 1
 28 -135 l 1
 65 -135 89 -100 89 -60 c 1
EndSplineSet
Validated: 5
EndChar

StartChar: kgreenlandic
Encoding: 312 312 573
Width: 570
VWidth: 0
Flags: HW
AnchorPoint: "dot" 325 673 basechar 0
AnchorPoint: "ced" 495 0 basechar 0
LayerCount: 2
Fore
SplineSet
245 291 m 1
 325 305 l 1
 545 0 l 1
 455 0 l 1
 245 291 l 1
430 520 m 1
 525 520 l 1
 165 110 l 1
 110 154 l 1
 430 520 l 1
85 520 m 5
 165 520 l 5
 165 0 l 1
 85 0 l 1
 85 520 l 5
EndSplineSet
EndChar

StartChar: ogonek
Encoding: 731 731 574
Width: 320
VWidth: 0
Flags: HW
AnchorPoint: "ced" 149 0 basechar 0
LayerCount: 2
Fore
SplineSet
209 30 m 1
 162 -9 105 -64 105 -99 c 0
 105 -131 129 -140 160 -140 c 0
 190 -140 210 -128 219 -125 c 1
 239 -155 l 1
 218 -170 180 -184 143 -184 c 0
 76 -184 54 -149 54 -102 c 0
 54 -44 119 -4 169 30 c 1
 209 30 l 1
EndSplineSet
EndChar

StartChar: AE
Encoding: 198 198 582
Width: 1090
VWidth: 0
Flags: HW
LayerCount: 2
Fore
SplineSet
440 700 m 1
 565 700 l 1
 560 620 l 1
 440 620 l 1
 440 700 l 1
204 260 m 1
 596 260 l 1
 596 185 l 1
 204 185 l 1
 204 260 l 1
440 700 m 1
 515 690 l 1
 125 0 l 1
 40 0 l 1
 440 700 l 1
EndSplineSet
Refer: 0 69 N 1 0 0 1 430 0 2
EndChar

